<?xml version="1.0" encoding="UTF-8" standalone="no"?>
<!DOCTYPE svg PUBLIC "-//W3C//DTD SVG 1.1//EN"
 "http://www.w3.org/Graphics/SVG/1.1/DTD/svg11.dtd">
<!-- Generated by graphviz version 2.40.1 (20161225.0304)
 -->
<!-- Title: nestjs_template Pages: 1 -->
<svg width="694pt" height="339pt"
 viewBox="0.00 0.00 694.00 339.00" xmlns="http://www.w3.org/2000/svg" xmlns:xlink="http://www.w3.org/1999/xlink">
<g id="graph0" class="graph" transform="scale(1 1) rotate(0) translate(4 335)">
<title>nestjs_template</title>
<polygon fill="#ffffff" stroke="transparent" points="-4,4 -4,-335 690,-335 690,4 -4,4"/>
<!-- __drizzle_migrations -->
<g id="node1" class="node">
<title>__drizzle_migrations</title>
<polygon fill="#efefef" stroke="transparent" points="43,-192.5 43,-227.5 349,-227.5 349,-192.5 43,-192.5"/>
<polygon fill="none" stroke="#000000" points="43,-192.5 43,-227.5 349,-227.5 349,-192.5 43,-192.5"/>
<text text-anchor="start" x="49.7103" y="-205.3" font-family="Arial Bold" font-size="18.00" fill="#000000">__drizzle_migrations</text>
<text text-anchor="start" x="214.7217" y="-205.3" font-family="Arial" font-size="14.00" fill="#000000">    </text>
<text text-anchor="start" x="248.9265" y="-205.3" font-family="Arial" font-size="14.00" fill="#666666">[BASE TABLE]</text>
<polygon fill="none" stroke="#000000" points="43,-162.5 43,-192.5 349,-192.5 349,-162.5 43,-162.5"/>
<text text-anchor="start" x="50" y="-173.9" font-family="Arial" font-size="14.00" fill="#000000">id    </text>
<text text-anchor="start" x="95.094" y="-173.9" font-family="Arial" font-size="14.00" fill="#666666">[bigint(20) unsigned]</text>
<polygon fill="none" stroke="#000000" points="43,-132.5 43,-162.5 349,-162.5 349,-132.5 43,-132.5"/>
<text text-anchor="start" x="50" y="-143.9" font-family="Arial" font-size="14.00" fill="#000000">hash    </text>
<text text-anchor="start" x="114.5526" y="-143.9" font-family="Arial" font-size="14.00" fill="#666666">[text]</text>
<polygon fill="none" stroke="#000000" points="43,-102.5 43,-132.5 349,-132.5 349,-102.5 43,-102.5"/>
<text text-anchor="start" x="50" y="-113.9" font-family="Arial" font-size="14.00" fill="#000000">created_at    </text>
<text text-anchor="start" x="150.3422" y="-113.9" font-family="Arial" font-size="14.00" fill="#666666">[bigint(20)]</text>
</g>
<!-- users -->
<g id="node2" class="node">
<title>users</title>
<polygon fill="#efefef" stroke="transparent" points="453,-252.5 453,-287.5 643,-287.5 643,-252.5 453,-252.5"/>
<polygon fill="none" stroke="#000000" points="453,-252.5 453,-287.5 643,-287.5 643,-252.5 453,-252.5"/>
<text text-anchor="start" x="462.2137" y="-265.3" font-family="Arial Bold" font-size="18.00" fill="#000000">users</text>
<text text-anchor="start" x="506.2183" y="-265.3" font-family="Arial" font-size="14.00" fill="#000000">    </text>
<text text-anchor="start" x="540.4231" y="-265.3" font-family="Arial" font-size="14.00" fill="#666666">[BASE TABLE]</text>
<polygon fill="none" stroke="#000000" points="453,-222.5 453,-252.5 643,-252.5 643,-222.5 453,-222.5"/>
<text text-anchor="start" x="460" y="-233.9" font-family="Arial" font-size="14.00" fill="#000000">id    </text>
<text text-anchor="start" x="505.094" y="-233.9" font-family="Arial" font-size="14.00" fill="#666666">[bigint(20) unsigned]</text>
<polygon fill="none" stroke="#000000" points="453,-192.5 453,-222.5 643,-222.5 643,-192.5 453,-192.5"/>
<text text-anchor="start" x="460" y="-203.9" font-family="Arial" font-size="14.00" fill="#000000">email    </text>
<text text-anchor="start" x="527.6438" y="-203.9" font-family="Arial" font-size="14.00" fill="#666666">[varchar(256)]</text>
<polygon fill="none" stroke="#000000" points="453,-162.5 453,-192.5 643,-192.5 643,-162.5 453,-162.5"/>
<text text-anchor="start" x="460" y="-173.9" font-family="Arial" font-size="14.00" fill="#000000">name    </text>
<text text-anchor="start" x="529.2132" y="-173.9" font-family="Arial" font-size="14.00" fill="#666666">[varchar(256)]</text>
<polygon fill="none" stroke="#000000" points="453,-132.5 453,-162.5 643,-162.5 643,-132.5 453,-132.5"/>
<text text-anchor="start" x="460" y="-143.9" font-family="Arial" font-size="14.00" fill="#000000">is_admin    </text>
<text text-anchor="start" x="550.209" y="-143.9" font-family="Arial" font-size="14.00" fill="#666666">[tinyint(1)]</text>
<polygon fill="none" stroke="#000000" points="453,-102.5 453,-132.5 643,-132.5 643,-102.5 453,-102.5"/>
<text text-anchor="start" x="460" y="-113.9" font-family="Arial" font-size="14.00" fill="#000000">detail    </text>
<text text-anchor="start" x="527.6564" y="-113.9" font-family="Arial" font-size="14.00" fill="#666666">[text]</text>
<polygon fill="none" stroke="#000000" points="453,-72.5 453,-102.5 643,-102.5 643,-72.5 453,-72.5"/>
<text text-anchor="start" x="460" y="-83.9" font-family="Arial" font-size="14.00" fill="#000000">created_at    </text>
<text text-anchor="start" x="560.3422" y="-83.9" font-family="Arial" font-size="14.00" fill="#666666">[timestamp]</text>
<polygon fill="none" stroke="#000000" points="453,-42.5 453,-72.5 643,-72.5 643,-42.5 453,-42.5"/>
<text text-anchor="start" x="459.7076" y="-53.9" font-family="Arial" font-size="14.00" fill="#000000">updated_at    </text>
<text text-anchor="start" x="563.9544" y="-53.9" font-family="Arial" font-size="14.00" fill="#666666">[timestamp]</text>
</g>
</g>
</svg>
