<?xml version="1.0" encoding="UTF-8" standalone="no"?>
<!DOCTYPE svg PUBLIC "-//W3C//DTD SVG 1.1//EN"
 "http://www.w3.org/Graphics/SVG/1.1/DTD/svg11.dtd">
<!-- Generated by graphviz version 2.40.1 (20161225.0304)
 -->
<!-- Title: nestjs_template Pages: 1 -->
<svg width="290pt" height="339pt"
 viewBox="0.00 0.00 290.00 339.00" xmlns="http://www.w3.org/2000/svg" xmlns:xlink="http://www.w3.org/1999/xlink">
<g id="graph0" class="graph" transform="scale(1 1) rotate(0) translate(4 335)">
<title>nestjs_template</title>
<polygon fill="#ffffff" stroke="transparent" points="-4,4 -4,-335 286,-335 286,4 -4,4"/>
<!-- users -->
<g id="node1" class="node">
<title>users</title>
<polygon fill="#efefef" stroke="transparent" points="43,-252.5 43,-287.5 239,-287.5 239,-252.5 43,-252.5"/>
<polygon fill="none" stroke="#000000" points="43,-252.5 43,-287.5 239,-287.5 239,-252.5 43,-252.5"/>
<text text-anchor="start" x="55.2137" y="-265.3" font-family="Arial Bold" font-size="18.00" fill="#000000">users</text>
<text text-anchor="start" x="99.2183" y="-265.3" font-family="Arial" font-size="14.00" fill="#000000">    </text>
<text text-anchor="start" x="133.4231" y="-265.3" font-family="Arial" font-size="14.00" fill="#666666">[BASE TABLE]</text>
<polygon fill="none" stroke="#000000" points="43,-222.5 43,-252.5 239,-252.5 239,-222.5 43,-222.5"/>
<text text-anchor="start" x="50" y="-233.9" font-family="Arial" font-size="14.00" fill="#000000">id    </text>
<text text-anchor="start" x="95.094" y="-233.9" font-family="Arial" font-size="14.00" fill="#666666">[int(11)]</text>
<polygon fill="none" stroke="#000000" points="43,-192.5 43,-222.5 239,-222.5 239,-192.5 43,-192.5"/>
<text text-anchor="start" x="50" y="-203.9" font-family="Arial" font-size="14.00" fill="#000000">email    </text>
<text text-anchor="start" x="117.6438" y="-203.9" font-family="Arial" font-size="14.00" fill="#666666">[varchar(191)]</text>
<polygon fill="none" stroke="#000000" points="43,-162.5 43,-192.5 239,-192.5 239,-162.5 43,-162.5"/>
<text text-anchor="start" x="50" y="-173.9" font-family="Arial" font-size="14.00" fill="#000000">name    </text>
<text text-anchor="start" x="119.2132" y="-173.9" font-family="Arial" font-size="14.00" fill="#666666">[varchar(191)]</text>
<polygon fill="none" stroke="#000000" points="43,-132.5 43,-162.5 239,-162.5 239,-132.5 43,-132.5"/>
<text text-anchor="start" x="50" y="-143.9" font-family="Arial" font-size="14.00" fill="#000000">is_admin    </text>
<text text-anchor="start" x="140.209" y="-143.9" font-family="Arial" font-size="14.00" fill="#666666">[tinyint(1)]</text>
<polygon fill="none" stroke="#000000" points="43,-102.5 43,-132.5 239,-132.5 239,-102.5 43,-102.5"/>
<text text-anchor="start" x="50" y="-113.9" font-family="Arial" font-size="14.00" fill="#000000">remark    </text>
<text text-anchor="start" x="127.7518" y="-113.9" font-family="Arial" font-size="14.00" fill="#666666">[text]</text>
<polygon fill="none" stroke="#000000" points="43,-72.5 43,-102.5 239,-102.5 239,-72.5 43,-72.5"/>
<text text-anchor="start" x="50" y="-83.9" font-family="Arial" font-size="14.00" fill="#000000">created_at    </text>
<text text-anchor="start" x="150.3422" y="-83.9" font-family="Arial" font-size="14.00" fill="#666666">[datetime(3)]</text>
<polygon fill="none" stroke="#000000" points="43,-42.5 43,-72.5 239,-72.5 239,-42.5 43,-42.5"/>
<text text-anchor="start" x="49.5947" y="-53.9" font-family="Arial" font-size="14.00" fill="#000000">updated_at    </text>
<text text-anchor="start" x="153.8415" y="-53.9" font-family="Arial" font-size="14.00" fill="#666666">[datetime(3)]</text>
</g>
</g>
</svg>
