<?xml version="1.0" encoding="UTF-8" standalone="no"?>
<!DOCTYPE svg PUBLIC "-//W3C//DTD SVG 1.1//EN"
 "http://www.w3.org/Graphics/SVG/1.1/DTD/svg11.dtd">
<!-- Generated by graphviz version 2.40.1 (20161225.0304)
 -->
<!-- Title: nestjs_template Pages: 1 -->
<svg width="604pt" height="309pt"
 viewBox="0.00 0.00 603.50 309.00" xmlns="http://www.w3.org/2000/svg" xmlns:xlink="http://www.w3.org/1999/xlink">
<g id="graph0" class="graph" transform="scale(1 1) rotate(0) translate(4 305)">
<title>nestjs_template</title>
<polygon fill="#ffffff" stroke="transparent" points="-4,4 -4,-305 599.5,-305 599.5,4 -4,4"/>
<!-- example -->
<g id="node1" class="node">
<title>example</title>
<polygon fill="#efefef" stroke="transparent" points="43.5,-207.5 43.5,-242.5 252.5,-242.5 252.5,-207.5 43.5,-207.5"/>
<polygon fill="none" stroke="#000000" points="43.5,-207.5 43.5,-242.5 252.5,-242.5 252.5,-207.5 43.5,-207.5"/>
<text text-anchor="start" x="50.2104" y="-220.3" font-family="Arial Bold" font-size="18.00" fill="#000000">example</text>
<text text-anchor="start" x="118.2216" y="-220.3" font-family="Arial" font-size="14.00" fill="#000000">    </text>
<text text-anchor="start" x="152.4264" y="-220.3" font-family="Arial" font-size="14.00" fill="#666666">[BASE TABLE]</text>
<polygon fill="none" stroke="#000000" points="43.5,-177.5 43.5,-207.5 252.5,-207.5 252.5,-177.5 43.5,-177.5"/>
<text text-anchor="start" x="50.5" y="-188.9" font-family="Arial" font-size="14.00" fill="#000000">id    </text>
<text text-anchor="start" x="95.594" y="-188.9" font-family="Arial" font-size="14.00" fill="#666666">[int(11)]</text>
<polygon fill="none" stroke="#000000" points="43.5,-147.5 43.5,-177.5 252.5,-177.5 252.5,-147.5 43.5,-147.5"/>
<text text-anchor="start" x="50.5" y="-158.9" font-family="Arial" font-size="14.00" fill="#000000">title    </text>
<text text-anchor="start" x="106.4818" y="-158.9" font-family="Arial" font-size="14.00" fill="#666666">[varchar(255)]</text>
<polygon fill="none" stroke="#000000" points="43.5,-117.5 43.5,-147.5 252.5,-147.5 252.5,-117.5 43.5,-117.5"/>
<text text-anchor="start" x="50.5" y="-128.9" font-family="Arial" font-size="14.00" fill="#000000">content    </text>
<text text-anchor="start" x="130.6164" y="-128.9" font-family="Arial" font-size="14.00" fill="#666666">[varchar(255)]</text>
<polygon fill="none" stroke="#000000" points="43.5,-87.5 43.5,-117.5 252.5,-117.5 252.5,-87.5 43.5,-87.5"/>
<text text-anchor="start" x="50.5" y="-98.9" font-family="Arial" font-size="14.00" fill="#000000">created_at    </text>
<text text-anchor="start" x="150.8422" y="-98.9" font-family="Arial" font-size="14.00" fill="#666666">[datetime(6)]</text>
<polygon fill="none" stroke="#000000" points="43.5,-57.5 43.5,-87.5 252.5,-87.5 252.5,-57.5 43.5,-57.5"/>
<text text-anchor="start" x="50.5" y="-68.9" font-family="Arial" font-size="14.00" fill="#000000">updated_at    </text>
<text text-anchor="start" x="154.7468" y="-68.9" font-family="Arial" font-size="14.00" fill="#666666">[datetime(6)]</text>
</g>
<!-- user -->
<g id="node2" class="node">
<title>user</title>
<polygon fill="#efefef" stroke="transparent" points="356.5,-222.5 356.5,-257.5 552.5,-257.5 552.5,-222.5 356.5,-222.5"/>
<polygon fill="none" stroke="#000000" points="356.5,-222.5 356.5,-257.5 552.5,-257.5 552.5,-222.5 356.5,-222.5"/>
<text text-anchor="start" x="373.2137" y="-235.3" font-family="Arial Bold" font-size="18.00" fill="#000000">user</text>
<text text-anchor="start" x="408.2183" y="-235.3" font-family="Arial" font-size="14.00" fill="#000000">    </text>
<text text-anchor="start" x="442.4231" y="-235.3" font-family="Arial" font-size="14.00" fill="#666666">[BASE TABLE]</text>
<polygon fill="none" stroke="#000000" points="356.5,-192.5 356.5,-222.5 552.5,-222.5 552.5,-192.5 356.5,-192.5"/>
<text text-anchor="start" x="363.5" y="-203.9" font-family="Arial" font-size="14.00" fill="#000000">id    </text>
<text text-anchor="start" x="408.594" y="-203.9" font-family="Arial" font-size="14.00" fill="#666666">[int(11)]</text>
<polygon fill="none" stroke="#000000" points="356.5,-162.5 356.5,-192.5 552.5,-192.5 552.5,-162.5 356.5,-162.5"/>
<text text-anchor="start" x="363.5" y="-173.9" font-family="Arial" font-size="14.00" fill="#000000">name    </text>
<text text-anchor="start" x="432.7132" y="-173.9" font-family="Arial" font-size="14.00" fill="#666666">[varchar(255)]</text>
<polygon fill="none" stroke="#000000" points="356.5,-132.5 356.5,-162.5 552.5,-162.5 552.5,-132.5 356.5,-132.5"/>
<text text-anchor="start" x="363.5" y="-143.9" font-family="Arial" font-size="14.00" fill="#000000">email    </text>
<text text-anchor="start" x="431.1438" y="-143.9" font-family="Arial" font-size="14.00" fill="#666666">[varchar(255)]</text>
<polygon fill="none" stroke="#000000" points="356.5,-102.5 356.5,-132.5 552.5,-132.5 552.5,-102.5 356.5,-102.5"/>
<text text-anchor="start" x="363.5" y="-113.9" font-family="Arial" font-size="14.00" fill="#000000">is_active    </text>
<text text-anchor="start" x="452.1564" y="-113.9" font-family="Arial" font-size="14.00" fill="#666666">[tinyint(4)]</text>
<polygon fill="none" stroke="#000000" points="356.5,-72.5 356.5,-102.5 552.5,-102.5 552.5,-72.5 356.5,-72.5"/>
<text text-anchor="start" x="363.5" y="-83.9" font-family="Arial" font-size="14.00" fill="#000000">created_at    </text>
<text text-anchor="start" x="463.8422" y="-83.9" font-family="Arial" font-size="14.00" fill="#666666">[datetime(6)]</text>
<polygon fill="none" stroke="#000000" points="356.5,-42.5 356.5,-72.5 552.5,-72.5 552.5,-42.5 356.5,-42.5"/>
<text text-anchor="start" x="363.0947" y="-53.9" font-family="Arial" font-size="14.00" fill="#000000">updated_at    </text>
<text text-anchor="start" x="467.3415" y="-53.9" font-family="Arial" font-size="14.00" fill="#666666">[datetime(6)]</text>
</g>
</g>
</svg>
